<?xml version="1.0" standalone="no"?>
<!DOCTYPE svg PUBLIC "-//W3C//DTD SVG 20010904//EN"
 "http://www.w3.org/TR/2001/REC-SVG-20010904/DTD/svg10.dtd">
<svg version="1.0" xmlns="http://www.w3.org/2000/svg"
 width="1084.000000pt" height="263.000000pt" viewBox="0 0 1084.000000 263.000000"
 preserveAspectRatio="xMidYMid meet">
<metadata>
Created by potrace 1.16, written by Peter Selinger 2001-2019
</metadata>
<g transform="translate(0.000000,263.000000) scale(0.100000,-0.100000)"
fill="#000000" stroke="none">
<path d="M5527 2010 c-298 -54 -536 -268 -608 -547 -42 -166 -20 -374 56 -528
231 -468 912 -557 1207 -157 86 116 121 236 116 402 l-3 105 -322 3 -323 2 0
-110 0 -110 210 0 c205 0 210 0 210 -21 0 -119 -110 -243 -259 -289 -86 -27
-226 -27 -313 0 -224 69 -378 279 -378 515 0 278 180 486 454 524 147 21 260
-11 406 -113 l77 -54 67 67 c36 36 66 71 66 77 0 16 -81 88 -142 127 -66 42
-134 73 -207 92 -68 19 -248 27 -314 15z"/>
<path d="M197 2003 c-4 -3 -7 -334 -7 -735 l0 -728 110 0 110 0 0 284 0 285
238 3 237 3 77 37 c117 57 201 161 237 293 15 56 14 171 -3 235 -42 162 -185
293 -347 320 -70 11 -642 14 -652 3z m663 -222 c14 -7 42 -30 63 -50 106 -101
80 -312 -48 -387 -41 -23 -47 -24 -253 -24 l-212 0 0 241 0 241 213 -4 c155
-2 219 -7 237 -17z"/>
<path d="M2030 1987 c-88 -27 -200 -85 -255 -134 -200 -175 -284 -301 -315
-472 -13 -73 -1 -178 32 -269 14 -40 20 -83 21 -144 0 -81 -2 -93 -35 -158
l-35 -71 36 33 c20 18 68 63 107 101 40 37 76 67 81 67 5 0 34 -26 66 -58 l57
-58 -36 -34 c-20 -19 -67 -70 -106 -112 l-70 -77 59 30 c66 33 157 51 217 43
23 -4 82 -17 131 -31 103 -28 203 -33 285 -14 134 32 296 144 423 291 56 65
141 233 156 308 48 235 -53 502 -243 646 -166 125 -388 168 -576 113z"/>
<path d="M3177 2004 c-4 -4 -7 -335 -7 -736 l0 -728 111 0 111 0 -5 428 c-2
235 -10 470 -16 522 -19 161 -19 170 -13 170 4 0 66 -77 137 -171 72 -95 168
-222 215 -283 47 -61 142 -185 211 -276 69 -91 145 -190 168 -220 24 -30 61
-81 84 -112 l42 -57 103 -1 102 0 -2 733 -3 732 -107 3 -108 3 0 -403 c0 -359
10 -651 25 -715 3 -13 2 -23 -2 -23 -5 0 -141 178 -303 395 -162 218 -354 473
-425 568 l-131 172 -90 3 c-49 1 -93 0 -97 -4z"/>
<path d="M6760 1275 l0 -735 460 0 460 0 0 110 0 110 -350 0 -350 0 0 215 0
215 290 0 290 0 0 105 0 105 -290 0 -290 0 0 195 0 195 350 0 350 0 0 110 0
110 -460 0 -460 0 0 -735z"/>
<path d="M8030 2005 c0 -2 128 -185 285 -407 l285 -403 0 -327 0 -328 110 0
110 0 0 324 0 324 58 88 c32 49 151 229 263 399 113 171 208 316 213 323 6 9
-21 12 -121 12 l-128 -1 -190 -300 c-104 -165 -192 -302 -195 -304 -4 -2 -226
312 -379 537 l-46 67 -132 1 c-73 0 -133 -2 -133 -5z"/>
<path d="M9750 1275 l0 -735 460 0 460 0 0 110 0 110 -350 0 -350 0 0 215 0
215 290 0 290 0 0 105 0 105 -290 0 -290 0 0 195 0 195 350 0 350 0 0 110 0
110 -460 0 -460 0 0 -735z"/>
</g>
</svg>
